Coordinates
version=1
nRows=49
nColumns=12
inDegrees=yes

Units are S.I. units (second, meters, Newtons, ...)
Angles are in degrees

endheader
time	SC_y	SC_z	SC_x	AC_y	AC_z	AC_x	GH_y	GH_z	GH_yy	EL_x	PS_y
       0.0              -49.49          13.87          82.31           56.5         -19.53          3.462        -0.2421           1.19          145.0          73.83          86.63
   0.04261              -49.48          13.87          82.29           56.5         -19.53          3.461        -0.2477            1.2          145.0          73.84          86.62
   0.08521              -49.48          13.87          82.28           56.5         -19.53          3.459        -0.2537          1.209          144.9          73.84          86.61
    0.1278              -49.48          13.87          82.27           56.5         -19.52          3.457          -0.26           1.22          144.9          73.85           86.6
    0.1704              -49.48          13.87          82.25           56.5         -19.52          3.455        -0.2667          1.231          144.8          73.86          86.59
     0.213              -49.47          13.87          82.24           56.5         -19.52          3.453        -0.2738          1.242          144.8          73.87          86.58
    0.2556              -49.47          13.88          82.22           56.5         -19.52          3.451        -0.2815          1.255          144.7          73.88          86.57
    0.2982              -49.47          13.88          82.21          56.49         -19.52          3.448        -0.2897          1.268          144.6          73.88          86.55
    0.3408              -49.46          13.88          82.19          56.49         -19.52          3.446        -0.2984          1.282          144.6           73.9          86.54
    0.3834              -49.46          13.88          82.17          56.49         -19.52          3.443        -0.3078          1.298          144.5          73.91          86.52
    0.4261              -49.46          13.88          82.15          56.49         -19.52           3.44        -0.3179          1.314          144.4          73.92          86.51
    0.4687              -49.45          13.88          82.12          56.49         -19.51          3.437        -0.3287          1.332          144.3          73.93          86.49
    0.5113              -49.45          13.89           82.1          56.48         -19.51          3.434        -0.3404          1.351          144.2          73.94          86.47
    0.5539              -49.44          13.89          82.07          56.48         -19.51           3.43        -0.3531          1.372          144.1          73.96          86.45
    0.5965              -49.44          13.89          82.04          56.48         -19.51          3.426        -0.3668          1.394          144.0          73.97          86.43
    0.6391              -49.43          13.89          82.01          56.48          -19.5          3.421        -0.3816          1.419          143.9          73.99           86.4
    0.6817              -49.42          13.89          81.98          56.47          -19.5          3.417        -0.3977          1.445          143.8          74.01          86.38
    0.7243              -49.42           13.9          81.94          56.47          -19.5          3.412        -0.4153          1.474          143.7          74.03          86.35
    0.7669              -49.41           13.9           81.9          56.47          -19.5          3.406        -0.4344          1.505          143.5          74.05          86.31
    0.8095               -49.4           13.9          81.86          56.46         -19.49            3.4        -0.4554          1.539          143.4          74.08          86.28
    0.8521              -49.39          13.91          81.81          56.46         -19.49          3.393        -0.4785          1.577          143.2           74.1          86.24
    0.8947              -49.38          13.91          81.76          56.45         -19.48          3.385        -0.5039          1.619          143.0          74.13           86.2
    0.9373              -49.37          13.92           81.7          56.45         -19.48          3.377        -0.5319          1.665          142.8          74.16          86.15
    0.9799              -49.36          13.92          81.63          56.44         -19.47          3.368        -0.5629          1.715          142.5           74.2           86.1
     1.023              -49.34          13.93          81.56          56.43         -19.47          3.358        -0.5975          1.772          142.2          74.24          86.04
     1.065              -49.33          13.93          81.48          56.43         -19.46          3.347         -0.636          1.835          141.9          74.28          85.98
     1.108              -49.31          13.94          81.39          56.42         -19.45          3.334        -0.6791          1.906          141.6          74.33          85.91
      1.15              -49.29          13.95          81.29          56.41         -19.45           3.32        -0.7277          1.985          141.2          74.39          85.83
     1.193              -49.27          13.95          81.17           56.4         -19.44          3.304        -0.7825          2.075          140.8          74.45          85.74
     1.236              -49.24          13.96          81.04          56.38         -19.43          3.285        -0.8448          2.177          140.3          74.52          85.63
     1.278              -49.22          13.98          80.89          56.37         -19.41          3.264        -0.9159          2.293          139.8          74.61          85.51
     1.321              -49.18          13.99          80.72          56.35          -19.4           3.24        -0.9974          2.426          139.1           74.7          85.38
     1.363              -49.14           14.0          80.52          56.33         -19.39          3.213         -1.092          2.581          138.4          74.81          85.22
     1.406               -49.1          14.02          80.29          56.31         -19.37           3.18         -1.201           2.76          137.6          74.93          85.04
     1.449              -49.05          14.04          80.03          56.29         -19.35          3.143         -1.329          2.969          136.6          75.08          84.83
     1.491              -48.99          14.06          79.71          56.26         -19.32          3.098          -1.48          3.216          135.4          75.25          84.58
     1.534              -48.92          14.09          79.33          56.22         -19.29          3.046         -1.659           3.51          134.0          75.46          84.28
     1.576              -48.83          14.13          78.88          56.18         -19.25          2.982         -1.874          3.862          132.3          75.71          83.92
     1.619              -48.73          14.17          78.34          56.13         -19.21          2.906         -2.134          4.287          130.3          76.01          83.49
     1.662               -48.6          14.22          77.67          56.06         -19.16          2.812         -2.452          4.807          127.9          76.37          82.96
     1.704              -48.44          14.28          76.85          55.99         -19.09          2.697         -2.844          5.449          124.8          76.82          82.31
     1.747              -48.24          14.36          75.82          55.89         -19.01          2.553         -3.333          6.249          121.0          77.39           81.5
     1.789               -48.0          14.45          74.53          55.77         -18.91          2.372         -3.949          7.258          116.2           78.1          80.48
     1.832              -47.68          14.58          72.89          55.61         -18.77          2.142         -4.733          8.539          110.2           79.0          79.18
     1.875              -47.28          14.73          70.78          55.41         -18.61          1.847         -5.735          10.18          102.4          80.15          77.52
     1.917              -46.76          14.93          68.08          55.16         -18.39          1.469         -7.021          12.28           92.4          81.63          75.38
      1.96               -46.1          15.19          64.64          54.83         -18.11         0.9852         -8.664          14.97          79.65          83.52          72.65
     2.002              -45.27          15.52           60.3          54.42         -17.77         0.3775         -10.73          18.36          63.62           85.9          69.22
     2.045              -44.26          15.91          55.02          53.92         -17.34         -0.363         -13.25          22.48          44.08           88.8          65.05
